# xmcd
#
# Track frame offsets: 
#        150
#        15600
#        28807
#        41065
#        58110
#        74037
#        90330
#        106090
#        121447
#        135805
#
# Disc length: 2083 seconds
#
# Revision: 0
# Processed by: cddbd v1.5.2PL0 Copyright (c) Steve Scherf et al.
# Submitted via: ExactAudioCopy v0.99pb4
#
DISCID=8108210a
DTITLE=Wells, Paul David - Sounds good to me
DYEAR=1990
DGENRE=Country
TTITLE0=Sounds good to me
TTITLE1=Down at the county jail
TTITLE2=Blame the whiskey
TTITLE3=He crossed the line
TTITLE4=It never stops
TTITLE5=Painting California blue
TTITLE6=Down to my last oreo
TTITLE7=The american dream
TTITLE8=Halfway home
TTITLE9=This ol' farm
EXTD=
EXTT0=
EXTT1=
EXTT2=
EXTT3=
EXTT4=
EXTT5=
EXTT6=
EXTT7=
EXTT8=
EXTT9=
PLAYORDER=
